<svg width="184" height="42" viewBox="0 0 184 42" fill="none" xmlns="http://www.w3.org/2000/svg">
<path d="M20.3514 20.576C20.3514 21.552 20.1274 22.448 19.6794 23.264C19.2314 24.064 18.5434 24.712 17.6154 25.208C16.6874 25.704 15.5354 25.952 14.1594 25.952H11.6154V32H7.51144V15.152H14.1594C15.5034 15.152 16.6394 15.384 17.5674 15.848C18.4954 16.312 19.1914 16.952 19.6554 17.768C20.1194 18.584 20.3514 19.52 20.3514 20.576ZM13.8474 22.688C14.6314 22.688 15.2154 22.504 15.5994 22.136C15.9834 21.768 16.1754 21.248 16.1754 20.576C16.1754 19.904 15.9834 19.384 15.5994 19.016C15.2154 18.648 14.6314 18.464 13.8474 18.464H11.6154V22.688H13.8474Z" fill="#A8A4FF"/>
<path d="M14.3514 14.576C14.3514 15.552 14.1274 16.448 13.6794 17.264C13.2314 18.064 12.5434 18.712 11.6154 19.208C10.6874 19.704 9.53544 19.952 8.15944 19.952H5.61544V26H1.51144V9.152H8.15944C9.50344 9.152 10.6394 9.384 11.5674 9.848C12.4954 10.312 13.1914 10.952 13.6554 11.768C14.1194 12.584 14.3514 13.52 14.3514 14.576ZM7.84744 16.688C8.63144 16.688 9.21544 16.504 9.59944 16.136C9.98344 15.768 10.1754 15.248 10.1754 14.576C10.1754 13.904 9.98344 13.384 9.59944 13.016C9.21544 12.648 8.63144 12.464 7.84744 12.464H5.61544V16.688H7.84744Z" fill="#635FC7"/>
<path d="M41.3892 18.48C41.3892 19.2933 41.2026 20.04 40.8292 20.72C40.4559 21.3867 39.8826 21.9267 39.1092 22.34C38.3359 22.7533 37.3759 22.96 36.2292 22.96H34.1092V28H30.6892V13.96H36.2292C37.3492 13.96 38.2959 14.1533 39.0692 14.54C39.8426 14.9267 40.4226 15.46 40.8092 16.14C41.1959 16.82 41.3892 17.6 41.3892 18.48ZM35.9692 20.24C36.6226 20.24 37.1092 20.0867 37.4292 19.78C37.7492 19.4733 37.9092 19.04 37.9092 18.48C37.9092 17.92 37.7492 17.4867 37.4292 17.18C37.1092 16.8733 36.6226 16.72 35.9692 16.72H34.1092V20.24H35.9692ZM46.5897 13.2V28H43.1697V13.2H46.5897ZM48.3881 22.4C48.3881 21.2533 48.6015 20.2467 49.0281 19.38C49.4681 18.5133 50.0615 17.8467 50.8081 17.38C51.5548 16.9133 52.3881 16.68 53.3081 16.68C54.0948 16.68 54.7815 16.84 55.3681 17.16C55.9681 17.48 56.4281 17.9 56.7481 18.42V16.84H60.1681V28H56.7481V26.42C56.4148 26.94 55.9481 27.36 55.3481 27.68C54.7615 28 54.0748 28.16 53.2881 28.16C52.3815 28.16 51.5548 27.9267 50.8081 27.46C50.0615 26.98 49.4681 26.3067 49.0281 25.44C48.6015 24.56 48.3881 23.5467 48.3881 22.4ZM56.7481 22.42C56.7481 21.5667 56.5081 20.8933 56.0281 20.4C55.5615 19.9067 54.9881 19.66 54.3081 19.66C53.6281 19.66 53.0481 19.9067 52.5681 20.4C52.1015 20.88 51.8681 21.5467 51.8681 22.4C51.8681 23.2533 52.1015 23.9333 52.5681 24.44C53.0481 24.9333 53.6281 25.18 54.3081 25.18C54.9881 25.18 55.5615 24.9333 56.0281 24.44C56.5081 23.9467 56.7481 23.2733 56.7481 22.42ZM69.4423 16.72C70.749 16.72 71.789 17.1467 72.5623 18C73.349 18.84 73.7423 20 73.7423 21.48V28H70.3423V21.94C70.3423 21.1933 70.149 20.6133 69.7623 20.2C69.3757 19.7867 68.8557 19.58 68.2023 19.58C67.549 19.58 67.029 19.7867 66.6423 20.2C66.2557 20.6133 66.0623 21.1933 66.0623 21.94V28H62.6423V16.84H66.0623V18.32C66.409 17.8267 66.8757 17.44 67.4623 17.16C68.049 16.8667 68.709 16.72 69.4423 16.72ZM82.9189 16.72C84.2256 16.72 85.2656 17.1467 86.0389 18C86.8256 18.84 87.2189 20 87.2189 21.48V28H83.8189V21.94C83.8189 21.1933 83.6256 20.6133 83.2389 20.2C82.8522 19.7867 82.3322 19.58 81.6789 19.58C81.0256 19.58 80.5056 19.7867 80.1189 20.2C79.7322 20.6133 79.5389 21.1933 79.5389 21.94V28H76.1189V16.84H79.5389V18.32C79.8856 17.8267 80.3522 17.44 80.9389 17.16C81.5256 16.8667 82.1856 16.72 82.9189 16.72ZM91.3155 15.68C90.7155 15.68 90.2221 15.5067 89.8355 15.16C89.4621 14.8 89.2755 14.36 89.2755 13.84C89.2755 13.3067 89.4621 12.8667 89.8355 12.52C90.2221 12.16 90.7155 11.98 91.3155 11.98C91.9021 11.98 92.3821 12.16 92.7555 12.52C93.1421 12.8667 93.3355 13.3067 93.3355 13.84C93.3355 14.36 93.1421 14.8 92.7555 15.16C92.3821 15.5067 91.9021 15.68 91.3155 15.68ZM93.0155 16.84V28H89.5955V16.84H93.0155ZM102.294 16.72C103.601 16.72 104.641 17.1467 105.414 18C106.201 18.84 106.594 20 106.594 21.48V28H103.194V21.94C103.194 21.1933 103.001 20.6133 102.614 20.2C102.227 19.7867 101.707 19.58 101.054 19.58C100.401 19.58 99.8806 19.7867 99.4939 20.2C99.1072 20.6133 98.9139 21.1933 98.9139 21.94V28H95.4939V16.84H98.9139V18.32C99.2606 17.8267 99.7272 17.44 100.314 17.16C100.901 16.8667 101.561 16.72 102.294 16.72ZM113.21 16.68C113.997 16.68 114.684 16.84 115.27 17.16C115.87 17.48 116.33 17.9 116.65 18.42V16.84H120.07V27.98C120.07 29.0067 119.864 29.9333 119.45 30.76C119.05 31.6 118.43 32.2667 117.59 32.76C116.764 33.2533 115.73 33.5 114.49 33.5C112.837 33.5 111.497 33.1067 110.47 32.32C109.444 31.5467 108.857 30.4933 108.71 29.16H112.09C112.197 29.5867 112.45 29.92 112.85 30.16C113.25 30.4133 113.744 30.54 114.33 30.54C115.037 30.54 115.597 30.3333 116.01 29.92C116.437 29.52 116.65 28.8733 116.65 27.98V26.4C116.317 26.92 115.857 27.3467 115.27 27.68C114.684 28 113.997 28.16 113.21 28.16C112.29 28.16 111.457 27.9267 110.71 27.46C109.964 26.98 109.37 26.3067 108.93 25.44C108.504 24.56 108.29 23.5467 108.29 22.4C108.29 21.2533 108.504 20.2467 108.93 19.38C109.37 18.5133 109.964 17.8467 110.71 17.38C111.457 16.9133 112.29 16.68 113.21 16.68ZM116.65 22.42C116.65 21.5667 116.41 20.8933 115.93 20.4C115.464 19.9067 114.89 19.66 114.21 19.66C113.53 19.66 112.95 19.9067 112.47 20.4C112.004 20.88 111.77 21.5467 111.77 22.4C111.77 23.2533 112.004 23.9333 112.47 24.44C112.95 24.9333 113.53 25.18 114.21 25.18C114.89 25.18 115.464 24.9333 115.93 24.44C116.41 23.9467 116.65 23.2733 116.65 22.42ZM137.483 18.48C137.483 19.2933 137.296 20.04 136.923 20.72C136.55 21.3867 135.976 21.9267 135.203 22.34C134.43 22.7533 133.47 22.96 132.323 22.96H130.203V28H126.783V13.96H132.323C133.443 13.96 134.39 14.1533 135.163 14.54C135.936 14.9267 136.516 15.46 136.903 16.14C137.29 16.82 137.483 17.6 137.483 18.48ZM132.063 20.24C132.716 20.24 133.203 20.0867 133.523 19.78C133.843 19.4733 134.003 19.04 134.003 18.48C134.003 17.92 133.843 17.4867 133.523 17.18C133.203 16.8733 132.716 16.72 132.063 16.72H130.203V20.24H132.063ZM144.343 28.16C143.25 28.16 142.263 27.9267 141.383 27.46C140.517 26.9933 139.83 26.3267 139.323 25.46C138.83 24.5933 138.583 23.58 138.583 22.42C138.583 21.2733 138.837 20.2667 139.343 19.4C139.85 18.52 140.543 17.8467 141.423 17.38C142.303 16.9133 143.29 16.68 144.383 16.68C145.477 16.68 146.463 16.9133 147.343 17.38C148.223 17.8467 148.917 18.52 149.423 19.4C149.93 20.2667 150.183 21.2733 150.183 22.42C150.183 23.5667 149.923 24.58 149.403 25.46C148.897 26.3267 148.197 26.9933 147.303 27.46C146.423 27.9267 145.437 28.16 144.343 28.16ZM144.343 25.2C144.997 25.2 145.55 24.96 146.003 24.48C146.47 24 146.703 23.3133 146.703 22.42C146.703 21.5267 146.477 20.84 146.023 20.36C145.583 19.88 145.037 19.64 144.383 19.64C143.717 19.64 143.163 19.88 142.723 20.36C142.283 20.8267 142.063 21.5133 142.063 22.42C142.063 23.3133 142.277 24 142.703 24.48C143.143 24.96 143.69 25.2 144.343 25.2ZM158.818 28L155.418 23.32V28H151.998V13.2H155.418V21.38L158.798 16.84H163.018L158.378 22.44L163.058 28H158.818ZM174.881 22.24C174.881 22.56 174.861 22.8933 174.821 23.24H167.081C167.134 23.9333 167.354 24.4667 167.741 24.84C168.141 25.2 168.628 25.38 169.201 25.38C170.054 25.38 170.648 25.02 170.981 24.3H174.621C174.434 25.0333 174.094 25.6933 173.601 26.28C173.121 26.8667 172.514 27.3267 171.781 27.66C171.048 27.9933 170.228 28.16 169.321 28.16C168.228 28.16 167.254 27.9267 166.401 27.46C165.548 26.9933 164.881 26.3267 164.401 25.46C163.921 24.5933 163.681 23.58 163.681 22.42C163.681 21.26 163.914 20.2467 164.381 19.38C164.861 18.5133 165.528 17.8467 166.381 17.38C167.234 16.9133 168.214 16.68 169.321 16.68C170.401 16.68 171.361 16.9067 172.201 17.36C173.041 17.8133 173.694 18.46 174.161 19.3C174.641 20.14 174.881 21.12 174.881 22.24ZM171.381 21.34C171.381 20.7533 171.181 20.2867 170.781 19.94C170.381 19.5933 169.881 19.42 169.281 19.42C168.708 19.42 168.221 19.5867 167.821 19.92C167.434 20.2533 167.194 20.7267 167.101 21.34H171.381ZM180.105 18.7C180.505 18.0867 181.005 17.6067 181.605 17.26C182.205 16.9 182.872 16.72 183.605 16.72V20.34H182.665C181.812 20.34 181.172 20.5267 180.745 20.9C180.319 21.26 180.105 21.9 180.105 22.82V28H176.685V16.84H180.105V18.7Z" fill="white"/>
</svg>
